<svg width="400" height="300" viewBox="0 0 400 300" xmlns="http://www.w3.org/2000/svg">
  <defs>
    <linearGradient id="pyramid1" x1="0%" y1="0%" x2="100%" y2="100%">
      <stop offset="0%" style="stop-color:#3B82F6;stop-opacity:0.8" />
      <stop offset="100%" style="stop-color:#1E40AF;stop-opacity:0.9" />
    </linearGradient>
    <linearGradient id="pyramid2" x1="0%" y1="0%" x2="100%" y2="100%">
      <stop offset="0%" style="stop-color:#10B981;stop-opacity:0.8" />
      <stop offset="100%" style="stop-color:#047857;stop-opacity:0.9" />
    </linearGradient>
    <linearGradient id="pyramid3" x1="0%" y1="0%" x2="100%" y2="100%">
      <stop offset="0%" style="stop-color:#F59E0B;stop-opacity:0.8" />
      <stop offset="100%" style="stop-color:#D97706;stop-opacity:0.9" />
    </linearGradient>
    <linearGradient id="pyramid4" x1="0%" y1="0%" x2="100%" y2="100%">
      <stop offset="0%" style="stop-color:#8B5CF6;stop-opacity:0.8" />
      <stop offset="100%" style="stop-color:#6D28D9;stop-opacity:0.9" />
    </linearGradient>
  </defs>
  
  <!-- Large pyramid in background -->
  <polygon points="200,50 120,200 280,200" fill="url(#pyramid1)" stroke="#1E40AF" stroke-width="1" opacity="0.7"/>
  <polygon points="200,50 280,200 320,180" fill="url(#pyramid1)" stroke="#1E40AF" stroke-width="1" opacity="0.5"/>
  
  <!-- Medium pyramid on left -->
  <polygon points="80,120 40,220 120,220" fill="url(#pyramid2)" stroke="#047857" stroke-width="1"/>
  <polygon points="80,120 120,220 140,200" fill="url(#pyramid2)" stroke="#047857" stroke-width="1" opacity="0.7"/>
  
  <!-- Small pyramid on right -->
  <polygon points="320,100 290,180 350,180" fill="url(#pyramid3)" stroke="#D97706" stroke-width="1"/>
  <polygon points="320,100 350,180 370,160" fill="url(#pyramid3)" stroke="#D97706" stroke-width="1" opacity="0.8"/>
  
  <!-- Accent pyramid -->
  <polygon points="150,180 130,240 170,240" fill="url(#pyramid4)" stroke="#6D28D9" stroke-width="1"/>
  <polygon points="150,180 170,240 185,225" fill="url(#pyramid4)" stroke="#6D28D9" stroke-width="1" opacity="0.6"/>
  
  <!-- Floating geometric elements -->
  <circle cx="60" cy="80" r="8" fill="#3B82F6" opacity="0.6"/>
  <circle cx="340" cy="60" r="6" fill="#10B981" opacity="0.7"/>
  <polygon points="370,40 375,50 365,50" fill="#F59E0B" opacity="0.8"/>
  <polygon points="30,160 35,170 25,170" fill="#8B5CF6" opacity="0.6"/>
</svg>